<?xml version="1.0" encoding="UTF-8" standalone="no"?>
<svg
   xmlns:dc="http://purl.org/dc/elements/1.1/"
   xmlns:cc="http://creativecommons.org/ns#"
   xmlns:rdf="http://www.w3.org/1999/02/22-rdf-syntax-ns#"
   xmlns:svg="http://www.w3.org/2000/svg"
   xmlns="http://www.w3.org/2000/svg"
   xmlns:sodipodi="http://sodipodi.sourceforge.net/DTD/sodipodi-0.dtd"
   xmlns:inkscape="http://www.inkscape.org/namespaces/inkscape"
   version="1.0"
   width="21px"
   height="20px"
   viewBox="0 0 210 200"
   preserveAspectRatio="xMidYMid meet"
   id="svg17"
   sodipodi:docname="check_requirement (1).svg"
   inkscape:version="0.92.1 r15371">
  <metadata
     id="metadata23">
    <rdf:RDF>
      <cc:Work
         rdf:about="">
        <dc:format>image/svg+xml</dc:format>
        <dc:type
           rdf:resource="http://purl.org/dc/dcmitype/StillImage" />
      </cc:Work>
    </rdf:RDF>
  </metadata>
  <defs
     id="defs21" />
  <sodipodi:namedview
     pagecolor="#ffffff"
     bordercolor="#666666"
     borderopacity="1"
     objecttolerance="10"
     gridtolerance="10"
     guidetolerance="10"
     inkscape:pageopacity="0"
     inkscape:pageshadow="2"
     inkscape:window-width="1920"
     inkscape:window-height="1058"
     id="namedview19"
     showgrid="false"
     inkscape:zoom="16.68772"
     inkscape:cx="1.435401"
     inkscape:cy="17.320352"
     inkscape:window-x="-8"
     inkscape:window-y="-8"
     inkscape:window-maximized="1"
     inkscape:current-layer="svg17" />
  <g
     id="layer101"
     transform="matrix(0.94863631,0,0,0.92509461,3.5954631,10.187132)"
     style="fill:#ff6363;stroke:none">
    <path
       d="M 0,100 V 0 H 105 210 V 100 200 H 105 0 Z"
       id="path2"
       inkscape:connector-curvature="0" />
  </g>
  <g
     id="layer103"
     transform="matrix(0.99143939,0,0,0.98501892,-0.59924694,2.3969722)"
     style="fill:#fff8f8;stroke:none">
    <path
       d="m 0,168 c 0,-32 0,-32 15,-11 9,13 23,27 33,32 14,9 11,10 -15,11 C 2,200 0,198 0,168 Z"
       id="path8"
       inkscape:connector-curvature="0" />
    <path
       d="m 162,189 c 10,-5 24,-19 33,-32 15,-21 15,-21 15,11 0,30 -2,32 -32,32 -27,-1 -30,-2 -16,-11 z"
       id="path10"
       inkscape:connector-curvature="0" />
    <path
       d="M 41,154 C 12,117 14,75 46,43 68,21 78,18 116,23 c 36,4 44,2 40,-9 -4,-10 3,-14 24,-14 27,0 30,3 30,31 V 62 L 192,40 174,18 139,74 C 107,129 104,130 91,111 84,99 71,90 64,90 c -10,0 -8,9 8,35 13,19 26,35 31,35 4,0 21,-22 38,-50 17,-27 35,-50 40,-50 5,0 9,17 9,38 0,52 -32,82 -87,82 -33,0 -46,-6 -62,-26 z"
       id="path12"
       inkscape:connector-curvature="0" />
    <path
       d="M 0,33 C 0,2 2,0 33,0 62,1 64,2 47,15 37,22 22,37 15,47 2,64 1,62 0,33 Z"
       id="path14"
       inkscape:connector-curvature="0" />
  </g>
</svg>
